# xmcd
# 
# Track frame offsets:
#     150
#     20961
#     37980
#     59508
# 
# Disc length: 1072
# 
# Revision: 0
# Processed by: cddbd v1.5.2PL0 Copyright (c) Steve Scherf et al.
# Submitted via: fre:ac v1.0.17
# 
DISCID=32042e04
DTITLE=ReoNa - SWEET HURT
DYEAR=2018
DGENRE=
TTITLE0=SWEET HURT
TTITLE1=おやすみの詩
TTITLE2=カナリア
TTITLE3=SWEET HURT -Instrumental-
EXTD=
EXTT0=
EXTT1=
EXTT2=
EXTT3=
PLAYORDER=
